[img]http://img15.imageshack.us/img15/8163/greatgambler.jpg[/img]


[img]http://img819.imageshack.us/img819/5598/roadies1.jpg[/img]



[b][size=4][color=green]MTV Roadies 9 : Everything or Nothing is the ninth season of MTV Roadies, a reality television show aired on MTV India . The auditions started on 16 September from Pune following with Audition in Kolkata , Delhi, Chandhigarh and Hyderabad. Part of the season will take place in United States of America. The show started airing on MTV India from 7th January 2012 and every new episode airs on Saturdays at 7 P.M. IST.[/color][/size][/b]





[img]http://img18.imageshack.us/img18/6966/infoum.png[/img]


[b][size=5][color=green]General[/color][/size][/b]

[size=4][color=teal]Format                           : AVI
Format/Info                      : Audio Video Interleave
File size                        : 308 MiB
Duration                         : 49mn 12s
Overall bit rate                 : 874 Kbps
Movie name                       : Roadies 9 - Kolkata Auditions 2 [Uncensored] by !!!---greatgambler---!!!
Encoded by                       : !!!---greatgambler---!!!
Genre                            : Entertaining
Writing application              : MEncoder
Original source form/Name        : Television
[/color][/size]


[b][size=5][color=green]Video[/color][/size][/b]
[size=4][color=teal]ID                               : 0
Format                           : MPEG-4 Visual
Format profile                   : Advanced Simple@L5
Format settings, BVOP            : 2
Format settings, QPel            : No
Format settings, GMC             : No warppoints
Format settings, Matrix          : Default (H.263)
Codec ID                         : XVID
Codec ID/Hint                    : XviD
Duration                         : 49mn 12s
Bit rate                         : 765 Kbps
Width                            : 618 pixels
Height                           : 464 pixels
Display aspect ratio             : 4:3
Frame rate                       : 25.000 fps
Color space                      : YUV
Chroma subsampling               : 4:2:0
Bit depth                        : 8 bits
Scan type                        : Progressive
Compression mode                 : Lossy
Bits/(Pixel*Frame)               : 0.107
Stream size                      : 269 MiB (88%)
Writing library                  : XviD 1.2.1 (UTC 2008-12-04)[/color][/size]


[b][size=5][color=green]Audio[/color][/size][/b]
[size=4][color=teal]ID                               : 1
Format                           : MPEG Audio
Format version                   : Version 1
Format profile                   : Layer 3
Mode                             : Joint stereo
Mode extension                   : MS Stereo
Codec ID                         : 55
Codec ID/Hint                    : MP3
Duration                         : 49mn 11s
Bit rate mode                    : Constant
Bit rate                         : 96.0 Kbps
Channel(s)                       : 2 channels
Sampling rate                    : 44.1 KHz
Compression mode                 : Lossy
Delay relative to video          : 40ms
Stream size                      : 33.8 MiB (11%)
Alignment                        : Aligned on interleaves
Interleave, duration             : 26 ms (0.65 video frame)
Interleave, preload duration     : 522 ms
Writing library                  : LAME3.98
Language                         : Hindi
[/color][/size]



[img]http://img231.imageshack.us/img231/3671/screenshoots.png[/img]


[img]http://i.minus.com/i5ZTxstDEfT5x.png[/img]

[img]http://i.minus.com/ib2ECErCPANJxu.png[/img]

[img]http://i.minus.com/ibbVbX0MNKTPIM.png[/img]

[img]http://i.minus.com/i0njaOhKQLUJI.png[/img]

[img]http://i.minus.com/ieBiZ6KlwsnLo.png[/img]

[img]http://i.minus.com/imbwcr5E7F1Ww.png[/img]

